<svg width="14" height="10" viewBox="0 0 14 10" fill="none" xmlns="http://www.w3.org/2000/svg">
<path d="M12.1103 0.377057C12.3047 0.135503 12.5674 0 12.841 0C13.1147 0 13.3774 0.135503 13.5718 0.377057C13.6679 0.495673 13.7441 0.637061 13.7962 0.792992C13.8482 0.948922 13.875 1.11628 13.875 1.28533C13.875 1.45438 13.8482 1.62173 13.7962 1.77767C13.7441 1.9336 13.6679 2.07498 13.5718 2.1936L7.73153 9.37354C7.53661 9.61476 7.27381 9.75 7 9.75C6.72619 9.75 6.46339 9.61476 6.26847 9.37354L0.428168 2.1936C0.33215 2.07498 0.255898 1.9336 0.203851 1.77767C0.151803 1.62173 0.125 1.45438 0.125 1.28533C0.125 1.11628 0.151803 0.948922 0.203851 0.792992C0.255898 0.637061 0.33215 0.495673 0.428168 0.377057C0.622647 0.135503 0.88527 0 1.15895 0C1.43264 0 1.69526 0.135503 1.88974 0.377057L7.00224 6.26536L12.1103 0.377057Z" fill="white"/>
</svg>
