<svg width="80" height="73" viewBox="0 0 80 73" fill="none" xmlns="http://www.w3.org/2000/svg">
<path d="M27.42 55.54V70H25.5V63.66H17.92V70H15.98V55.54H17.92V61.82H25.5V55.54H27.42ZM30.4055 65.78C30.4055 64.9533 30.5988 64.2067 30.9855 63.54C31.3855 62.8733 31.9322 62.3467 32.6255 61.96C33.3188 61.5733 34.1055 61.38 34.9855 61.38C35.8922 61.38 36.6855 61.5733 37.3655 61.96C38.0455 62.3467 38.5722 62.8733 38.9455 63.54C39.3188 64.2067 39.5055 64.9533 39.5055 65.78C39.5055 66.6067 39.3188 67.36 38.9455 68.04C38.5722 68.7067 38.0388 69.2333 37.3455 69.62C36.6655 70.0067 35.8722 70.2 34.9655 70.2C34.0855 70.2 33.2988 70.02 32.6055 69.66C31.9255 69.2867 31.3855 68.7733 30.9855 68.12C30.5988 67.4533 30.4055 66.6733 30.4055 65.78ZM32.2655 65.8C32.2655 66.3333 32.3855 66.82 32.6255 67.26C32.8655 67.6867 33.1855 68.0267 33.5855 68.28C33.9988 68.5333 34.4522 68.66 34.9455 68.66C35.4655 68.66 35.9255 68.5333 36.3255 68.28C36.7388 68.0267 37.0588 67.6867 37.2855 67.26C37.5122 66.82 37.6255 66.3333 37.6255 65.8C37.6255 65.2667 37.5122 64.7867 37.2855 64.36C37.0588 63.92 36.7388 63.5733 36.3255 63.32C35.9255 63.0533 35.4655 62.92 34.9455 62.92C34.4388 62.92 33.9788 63.0533 33.5655 63.32C33.1655 63.5867 32.8455 63.94 32.6055 64.38C32.3788 64.8067 32.2655 65.28 32.2655 65.8ZM43.6839 61.72L43.8439 63.58L43.7639 63.42C44.0706 62.7933 44.5039 62.3 45.0639 61.94C45.6373 61.58 46.2906 61.4 47.0239 61.4C47.4906 61.4 47.9039 61.4733 48.2639 61.62C48.6239 61.7667 48.9173 61.98 49.1439 62.26C49.3839 62.5267 49.5373 62.86 49.6039 63.26L49.5039 63.32C49.8239 62.72 50.2639 62.2533 50.8239 61.92C51.3973 61.5733 51.9973 61.4 52.6239 61.4C53.4373 61.4 54.0773 61.6333 54.5439 62.1C55.0239 62.5533 55.2706 63.1467 55.2839 63.88V70H53.4239V64.54C53.4106 64.1133 53.3039 63.76 53.1039 63.48C52.9173 63.1867 52.5839 63.0267 52.1039 63C51.6239 63 51.1906 63.1467 50.8039 63.44C50.4306 63.7333 50.1373 64.1133 49.9239 64.58C49.7106 65.0333 49.5973 65.5267 49.5839 66.06V70H47.7239V64.54C47.7106 64.1133 47.5973 63.76 47.3839 63.48C47.1839 63.1867 46.8439 63.0267 46.3639 63C45.8706 63 45.4373 63.1467 45.0639 63.44C44.6906 63.7333 44.3973 64.1133 44.1839 64.58C43.9839 65.0467 43.8839 65.5467 43.8839 66.08V70H42.0239V61.72H43.6839ZM62.3678 70.2C61.4212 70.2 60.6078 70.0133 59.9278 69.64C59.2478 69.2533 58.7212 68.7333 58.3478 68.08C57.9878 67.4133 57.8078 66.6533 57.8078 65.8C57.8078 64.9867 58.0145 64.2467 58.4278 63.58C58.8412 62.9133 59.3945 62.38 60.0878 61.98C60.7812 61.58 61.5545 61.38 62.4078 61.38C63.5012 61.38 64.4078 61.7 65.1278 62.34C65.8478 62.98 66.3345 63.86 66.5878 64.98L59.7678 67.38L59.3278 66.28L64.9278 64.24L64.5278 64.5C64.3678 64.06 64.1012 63.68 63.7278 63.36C63.3545 63.0267 62.8678 62.86 62.2678 62.86C61.7612 62.86 61.3078 62.9867 60.9078 63.24C60.5078 63.48 60.1945 63.8133 59.9678 64.24C59.7412 64.6667 59.6278 65.1533 59.6278 65.7C59.6278 66.2733 59.7478 66.78 59.9878 67.22C60.2278 67.6467 60.5545 67.9867 60.9678 68.24C61.3945 68.48 61.8745 68.6 62.4078 68.6C62.7678 68.6 63.1145 68.5333 63.4478 68.4C63.7945 68.2667 64.1145 68.0933 64.4078 67.88L65.2678 69.26C64.8545 69.54 64.3878 69.7667 63.8678 69.94C63.3612 70.1133 62.8612 70.2 62.3678 70.2Z" fill="#539DF3"/>
<path fill-rule="evenodd" clip-rule="evenodd" d="M39.1628 10.1186C39.9493 9.62712 41.0507 9.62712 41.8372 10.1186L61.4404 22.3686C61.9709 22.7002 62.2812 23.21 62.2812 23.75V43C62.2812 44.3924 61.5928 45.7277 60.3674 46.7123C59.1419 47.6969 57.4799 48.25 55.7469 48.25H25.2531C23.5201 48.25 21.8581 47.6969 20.6326 46.7123C19.4072 45.7277 18.7188 44.3924 18.7188 43V23.75C18.7188 23.21 19.0291 22.7002 19.5596 22.3686L39.1628 10.1186ZM23.075 24.6059V43C23.075 43.4641 23.3045 43.9092 23.713 44.2374C24.1214 44.5656 24.6755 44.75 25.2531 44.75H55.7469C56.3245 44.75 56.8786 44.5656 57.287 44.2374C57.6955 43.9092 57.925 43.4641 57.925 43V24.6059L40.5 13.717L23.075 24.6059Z" fill="#539DF3"/>
<path fill-rule="evenodd" clip-rule="evenodd" d="M31.7876 29C31.7876 28.0335 32.7628 27.25 33.9657 27.25H47.0345C48.2374 27.25 49.2126 28.0335 49.2126 29V46.5C49.2126 47.4665 48.2374 48.25 47.0345 48.25C45.8315 48.25 44.8563 47.4665 44.8563 46.5V30.75H36.1438V46.5C36.1438 47.4665 35.1687 48.25 33.9657 48.25C32.7628 48.25 31.7876 47.4665 31.7876 46.5V29Z" fill="#539DF3"/>
<rect width="80" height="2" fill="#539DF3"/>
</svg>
