<svg width="74" height="65" viewBox="0 0 74 65" fill="none" xmlns="http://www.w3.org/2000/svg">
<path d="M23.42 47.54V62H21.5V55.66H13.92V62H11.98V47.54H13.92V53.82H21.5V47.54H23.42ZM26.4055 57.78C26.4055 56.9533 26.5988 56.2067 26.9855 55.54C27.3855 54.8733 27.9322 54.3467 28.6255 53.96C29.3188 53.5733 30.1055 53.38 30.9855 53.38C31.8922 53.38 32.6855 53.5733 33.3655 53.96C34.0455 54.3467 34.5722 54.8733 34.9455 55.54C35.3188 56.2067 35.5055 56.9533 35.5055 57.78C35.5055 58.6067 35.3188 59.36 34.9455 60.04C34.5722 60.7067 34.0388 61.2333 33.3455 61.62C32.6655 62.0067 31.8722 62.2 30.9655 62.2C30.0855 62.2 29.2988 62.02 28.6055 61.66C27.9255 61.2867 27.3855 60.7733 26.9855 60.12C26.5988 59.4533 26.4055 58.6733 26.4055 57.78ZM28.2655 57.8C28.2655 58.3333 28.3855 58.82 28.6255 59.26C28.8655 59.6867 29.1855 60.0267 29.5855 60.28C29.9988 60.5333 30.4522 60.66 30.9455 60.66C31.4655 60.66 31.9255 60.5333 32.3255 60.28C32.7388 60.0267 33.0588 59.6867 33.2855 59.26C33.5122 58.82 33.6255 58.3333 33.6255 57.8C33.6255 57.2667 33.5122 56.7867 33.2855 56.36C33.0588 55.92 32.7388 55.5733 32.3255 55.32C31.9255 55.0533 31.4655 54.92 30.9455 54.92C30.4388 54.92 29.9788 55.0533 29.5655 55.32C29.1655 55.5867 28.8455 55.94 28.6055 56.38C28.3788 56.8067 28.2655 57.28 28.2655 57.8ZM39.6839 53.72L39.8439 55.58L39.7639 55.42C40.0706 54.7933 40.5039 54.3 41.0639 53.94C41.6373 53.58 42.2906 53.4 43.0239 53.4C43.4906 53.4 43.9039 53.4733 44.2639 53.62C44.6239 53.7667 44.9173 53.98 45.1439 54.26C45.3839 54.5267 45.5373 54.86 45.6039 55.26L45.5039 55.32C45.8239 54.72 46.2639 54.2533 46.8239 53.92C47.3973 53.5733 47.9973 53.4 48.6239 53.4C49.4373 53.4 50.0773 53.6333 50.5439 54.1C51.0239 54.5533 51.2706 55.1467 51.2839 55.88V62H49.4239V56.54C49.4106 56.1133 49.3039 55.76 49.1039 55.48C48.9173 55.1867 48.5839 55.0267 48.1039 55C47.6239 55 47.1906 55.1467 46.8039 55.44C46.4306 55.7333 46.1373 56.1133 45.9239 56.58C45.7106 57.0333 45.5973 57.5267 45.5839 58.06V62H43.7239V56.54C43.7106 56.1133 43.5973 55.76 43.3839 55.48C43.1839 55.1867 42.8439 55.0267 42.3639 55C41.8706 55 41.4373 55.1467 41.0639 55.44C40.6906 55.7333 40.3973 56.1133 40.1839 56.58C39.9839 57.0467 39.8839 57.5467 39.8839 58.08V62H38.0239V53.72H39.6839ZM58.3678 62.2C57.4212 62.2 56.6078 62.0133 55.9278 61.64C55.2478 61.2533 54.7212 60.7333 54.3478 60.08C53.9878 59.4133 53.8078 58.6533 53.8078 57.8C53.8078 56.9867 54.0145 56.2467 54.4278 55.58C54.8412 54.9133 55.3945 54.38 56.0878 53.98C56.7812 53.58 57.5545 53.38 58.4078 53.38C59.5012 53.38 60.4078 53.7 61.1278 54.34C61.8478 54.98 62.3345 55.86 62.5878 56.98L55.7678 59.38L55.3278 58.28L60.9278 56.24L60.5278 56.5C60.3678 56.06 60.1012 55.68 59.7278 55.36C59.3545 55.0267 58.8678 54.86 58.2678 54.86C57.7612 54.86 57.3078 54.9867 56.9078 55.24C56.5078 55.48 56.1945 55.8133 55.9678 56.24C55.7412 56.6667 55.6278 57.1533 55.6278 57.7C55.6278 58.2733 55.7478 58.78 55.9878 59.22C56.2278 59.6467 56.5545 59.9867 56.9678 60.24C57.3945 60.48 57.8745 60.6 58.4078 60.6C58.7678 60.6 59.1145 60.5333 59.4478 60.4C59.7945 60.2667 60.1145 60.0933 60.4078 59.88L61.2678 61.26C60.8545 61.54 60.3878 61.7667 59.8678 61.94C59.3612 62.1133 58.8612 62.2 58.3678 62.2Z" fill="white"/>
<path fill-rule="evenodd" clip-rule="evenodd" d="M35.1628 2.11863C35.9493 1.62712 37.0507 1.62712 37.8372 2.11863L57.4404 14.3686C57.9709 14.7002 58.2812 15.21 58.2812 15.75V35C58.2812 36.3924 57.5928 37.7277 56.3674 38.7123C55.1419 39.6969 53.4799 40.25 51.7469 40.25H21.2531C19.5201 40.25 17.8581 39.6969 16.6326 38.7123C15.4072 37.7277 14.7188 36.3924 14.7188 35V15.75C14.7188 15.21 15.0291 14.7002 15.5596 14.3686L35.1628 2.11863ZM19.075 16.6059V35C19.075 35.4641 19.3045 35.9092 19.713 36.2374C20.1214 36.5656 20.6755 36.75 21.2531 36.75H51.7469C52.3245 36.75 52.8786 36.5656 53.287 36.2374C53.6955 35.9092 53.925 35.4641 53.925 35V16.6059L36.5 5.71701L19.075 16.6059Z" fill="white"/>
<path fill-rule="evenodd" clip-rule="evenodd" d="M27.7876 21C27.7876 20.0335 28.7628 19.25 29.9657 19.25H43.0345C44.2374 19.25 45.2126 20.0335 45.2126 21V38.5C45.2126 39.4665 44.2374 40.25 43.0345 40.25C41.8315 40.25 40.8563 39.4665 40.8563 38.5V22.75H32.1438V38.5C32.1438 39.4665 31.1687 40.25 29.9657 40.25C28.7628 40.25 27.7876 39.4665 27.7876 38.5V21Z" fill="white"/>
</svg>
