<svg width="48" height="46" viewBox="0 0 48 46" fill="none" xmlns="http://www.w3.org/2000/svg">
<path fill-rule="evenodd" clip-rule="evenodd" d="M8.92893 29.6402C10.8043 27.843 13.3478 26.8333 16 26.8333H32C34.6522 26.8333 37.1957 27.843 39.0711 29.6402C40.9464 31.4374 42 33.875 42 36.4166V40.25C42 41.3085 41.1046 42.1666 40 42.1666C38.8954 42.1666 38 41.3085 38 40.25V36.4166C38 34.8917 37.3679 33.4291 36.2426 32.3508C35.1174 31.2724 33.5913 30.6666 32 30.6666H16C14.4087 30.6666 12.8826 31.2724 11.7574 32.3508C10.6321 33.4291 10 34.8917 10 36.4166V40.25C10 41.3085 9.10457 42.1666 8 42.1666C6.89543 42.1666 6 41.3085 6 40.25V36.4166C6 33.875 7.05357 31.4374 8.92893 29.6402Z" fill="white"/>
<path fill-rule="evenodd" clip-rule="evenodd" d="M24 7.66665C20.6863 7.66665 18 10.241 18 13.4166C18 16.5923 20.6863 19.1666 24 19.1666C27.3137 19.1666 30 16.5923 30 13.4166C30 10.241 27.3137 7.66665 24 7.66665ZM14 13.4166C14 8.12392 18.4772 3.83331 24 3.83331C29.5228 3.83331 34 8.12392 34 13.4166C34 18.7094 29.5228 23 24 23C18.4772 23 14 18.7094 14 13.4166Z" fill="white"/>
</svg>
