<svg width="58" height="69" viewBox="0 0 58 69" fill="none" xmlns="http://www.w3.org/2000/svg">
<path d="M5.94 51.54C6.99333 51.54 7.89333 51.72 8.64 52.08C9.38667 52.4267 9.96 52.9333 10.36 53.6C10.7733 54.2667 10.98 55.0733 10.98 56.02C10.98 56.5933 10.8933 57.16 10.72 57.72C10.5467 58.2667 10.2667 58.7667 9.88 59.22C9.50667 59.66 9.01333 60.0133 8.4 60.28C7.78667 60.5467 7.04 60.68 6.16 60.68H4.02V66H2.08V51.54H5.94ZM6.14 58.82C6.71333 58.82 7.18667 58.7267 7.56 58.54C7.93333 58.3533 8.22667 58.12 8.44 57.84C8.65333 57.5467 8.80667 57.24 8.9 56.92C8.99333 56.6 9.04 56.3133 9.04 56.06C9.04 55.7667 8.99333 55.4667 8.9 55.16C8.80667 54.84 8.64667 54.5533 8.42 54.3C8.20667 54.0333 7.92 53.82 7.56 53.66C7.21333 53.4867 6.78 53.4 6.26 53.4H4.02V58.82H6.14ZM15.1745 57.72L15.3545 60.12L15.2545 59.8C15.4679 59.2933 15.7745 58.8667 16.1745 58.52C16.5879 58.16 17.0145 57.8867 17.4545 57.7C17.9079 57.5 18.3012 57.4 18.6345 57.4L18.5345 59.24C17.9079 59.2 17.3545 59.32 16.8745 59.6C16.4079 59.88 16.0345 60.2533 15.7545 60.72C15.4879 61.1867 15.3545 61.6867 15.3545 62.22V66H13.5145V57.72H15.1745ZM19.9625 61.78C19.9625 60.9533 20.1558 60.2067 20.5425 59.54C20.9425 58.8733 21.4892 58.3467 22.1825 57.96C22.8758 57.5733 23.6625 57.38 24.5425 57.38C25.4492 57.38 26.2425 57.5733 26.9225 57.96C27.6025 58.3467 28.1292 58.8733 28.5025 59.54C28.8758 60.2067 29.0625 60.9533 29.0625 61.78C29.0625 62.6067 28.8758 63.36 28.5025 64.04C28.1292 64.7067 27.5958 65.2333 26.9025 65.62C26.2225 66.0067 25.4292 66.2 24.5225 66.2C23.6425 66.2 22.8558 66.02 22.1625 65.66C21.4825 65.2867 20.9425 64.7733 20.5425 64.12C20.1558 63.4533 19.9625 62.6733 19.9625 61.78ZM21.8225 61.8C21.8225 62.3333 21.9425 62.82 22.1825 63.26C22.4225 63.6867 22.7425 64.0267 23.1425 64.28C23.5558 64.5333 24.0092 64.66 24.5025 64.66C25.0225 64.66 25.4825 64.5333 25.8825 64.28C26.2958 64.0267 26.6158 63.6867 26.8425 63.26C27.0692 62.82 27.1825 62.3333 27.1825 61.8C27.1825 61.2667 27.0692 60.7867 26.8425 60.36C26.6158 59.92 26.2958 59.5733 25.8825 59.32C25.4825 59.0533 25.0225 58.92 24.5025 58.92C23.9958 58.92 23.5358 59.0533 23.1225 59.32C22.7225 59.5867 22.4025 59.94 22.1625 60.38C21.9358 60.8067 21.8225 61.28 21.8225 61.8ZM32.2609 66V59.38H30.8409V57.72H32.2609V54.22C32.2609 53.02 32.5276 52.1 33.0609 51.46C33.6076 50.82 34.4076 50.5 35.4609 50.5C35.7409 50.5 36.0476 50.54 36.3809 50.62C36.7276 50.7 37.0276 50.8333 37.2809 51.02L36.5009 52.36C36.3809 52.24 36.2476 52.16 36.1009 52.12C35.9676 52.0667 35.8209 52.04 35.6609 52.04C35.1676 52.04 34.7876 52.2067 34.5209 52.54C34.2543 52.8733 34.1209 53.44 34.1209 54.24V57.72H36.4809V59.38H34.1209V66H32.2609ZM38.0809 57.72H39.9409V66H38.0809V57.72ZM37.9409 54.72C37.9409 54.4267 38.0609 54.1867 38.3009 54C38.5409 53.8 38.8009 53.7 39.0809 53.7C39.3476 53.7 39.5943 53.8 39.8209 54C40.0476 54.1867 40.1609 54.4333 40.1609 54.74C40.1609 55.0467 40.0476 55.3 39.8209 55.5C39.5943 55.6867 39.3476 55.78 39.0809 55.78C38.8009 55.78 38.5409 55.68 38.3009 55.48C38.0609 55.28 37.9409 55.0267 37.9409 54.72ZM43.1825 50.52H45.0425V66H43.1825V50.52ZM52.1006 66.2C51.154 66.2 50.3406 66.0133 49.6606 65.64C48.9806 65.2533 48.454 64.7333 48.0806 64.08C47.7206 63.4133 47.5406 62.6533 47.5406 61.8C47.5406 60.9867 47.7473 60.2467 48.1606 59.58C48.574 58.9133 49.1273 58.38 49.8206 57.98C50.514 57.58 51.2873 57.38 52.1406 57.38C53.234 57.38 54.1406 57.7 54.8606 58.34C55.5806 58.98 56.0673 59.86 56.3206 60.98L49.5006 63.38L49.0606 62.28L54.6606 60.24L54.2606 60.5C54.1006 60.06 53.834 59.68 53.4606 59.36C53.0873 59.0267 52.6006 58.86 52.0006 58.86C51.494 58.86 51.0406 58.9867 50.6406 59.24C50.2406 59.48 49.9273 59.8133 49.7006 60.24C49.474 60.6667 49.3606 61.1533 49.3606 61.7C49.3606 62.2733 49.4806 62.78 49.7206 63.22C49.9606 63.6467 50.2873 63.9867 50.7006 64.24C51.1273 64.48 51.6073 64.6 52.1406 64.6C52.5006 64.6 52.8473 64.5333 53.1806 64.4C53.5273 64.2667 53.8473 64.0933 54.1406 63.88L55.0006 65.26C54.5873 65.54 54.1206 65.7667 53.6006 65.94C53.094 66.1133 52.594 66.2 52.1006 66.2Z" fill="white"/>
<path fill-rule="evenodd" clip-rule="evenodd" d="M13.9289 29.6402C15.8043 27.843 18.3478 26.8333 21 26.8333H37C39.6522 26.8333 42.1957 27.843 44.0711 29.6402C45.9464 31.4375 47 33.875 47 36.4167V40.25C47 41.3086 46.1046 42.1667 45 42.1667C43.8954 42.1667 43 41.3086 43 40.25V36.4167C43 34.8917 42.3679 33.4292 41.2426 32.3508C40.1174 31.2725 38.5913 30.6667 37 30.6667H21C19.4087 30.6667 17.8826 31.2725 16.7574 32.3508C15.6321 33.4291 15 34.8917 15 36.4167V40.25C15 41.3086 14.1046 42.1667 13 42.1667C11.8954 42.1667 11 41.3086 11 40.25V36.4167C11 33.875 12.0536 31.4375 13.9289 29.6402Z" fill="white"/>
<path fill-rule="evenodd" clip-rule="evenodd" d="M29 7.66668C25.6863 7.66668 23 10.241 23 13.4167C23 16.5923 25.6863 19.1667 29 19.1667C32.3137 19.1667 35 16.5923 35 13.4167C35 10.241 32.3137 7.66668 29 7.66668ZM19 13.4167C19 8.12395 23.4772 3.83334 29 3.83334C34.5228 3.83334 39 8.12395 39 13.4167C39 18.7094 34.5228 23 29 23C23.4772 23 19 18.7094 19 13.4167Z" fill="white"/>
</svg>
